<svg width="21" height="19" viewBox="0 0 21 19" fill="none" xmlns="http://www.w3.org/2000/svg">
<path d="M7.02838 15.2694C7.02838 15.2694 6.98504 15.2301 6.94323 15.1909C6.90142 15.1909 6.85805 15.1515 6.77444 15.1515C6.60411 15.1515 6.56231 15.2301 6.56231 15.3086C6.56231 15.4263 6.60411 15.4656 6.77444 15.4656C6.94322 15.4656 7.02838 15.3871 7.02838 15.2694ZM5.71532 15.1123C5.71532 15.0338 5.80048 14.9946 5.96926 15.0338C6.09624 15.0732 6.13959 15.1124 6.13959 15.1909C6.13959 15.2694 6.09623 15.3086 6.05442 15.3086C5.96925 15.3479 5.92745 15.3479 5.88565 15.3086C5.80048 15.3086 5.75867 15.2694 5.71532 15.2301C5.67351 15.1909 5.67351 15.1515 5.71532 15.1123ZM7.5781 15.0338C7.70507 15.0338 7.79023 15.0732 7.79023 15.1515C7.79023 15.2301 7.74843 15.3086 7.62145 15.3479C7.53629 15.3479 7.49448 15.3479 7.45113 15.3479C7.40932 15.3479 7.36751 15.2694 7.36751 15.1909C7.36751 15.1124 7.40932 15.0732 7.5781 15.0338ZM10.373 0C12.2776 0 14.0568 0.431667 15.7074 1.2561C17.3163 2.11957 18.6293 3.25796 19.5615 4.6711C20.4921 6.16263 21 7.81134 21 9.57763C21 11.7759 20.3233 13.6992 19.0102 15.4263C17.6972 17.1535 16.0047 18.3311 13.888 18.9592C13.6325 19.0377 13.4637 18.9984 13.3367 18.8806C13.2098 18.8021 13.168 18.6451 13.168 18.4882V15.1909C13.168 14.3666 12.914 13.7777 12.4479 13.3853C13.4637 13.3067 14.2689 13.1497 14.7768 12.9926C15.5386 12.7572 16.1735 12.3646 16.5978 11.8151C17.0623 11.1478 17.3162 10.2057 17.3162 9.0281C17.3162 8.5571 17.1893 8.12529 17.0205 7.73282C16.8517 7.49725 16.5978 7.14396 16.2153 6.75148C16.3005 6.51591 16.3856 6.20196 16.4274 5.80934C16.4274 5.25982 16.3423 4.6711 16.1317 4.08224C15.8344 4.00372 15.4535 4.08224 14.9456 4.23929C14.6065 4.39619 14.1837 4.55324 13.7595 4.78882L13.2098 5.1421C12.321 4.90653 11.4322 4.78882 10.5 4.78882C9.56784 4.78882 8.72238 4.90653 7.87538 5.1421L7.32415 4.78882C6.85807 4.55324 6.43535 4.39619 6.09624 4.23929C5.58835 4.08224 5.20742 4.00372 4.95348 4.08224C4.69953 4.6711 4.57257 5.25982 4.65773 5.80934C4.65773 6.20196 4.69953 6.47672 4.8265 6.71215C4.48739 7.10477 4.23344 7.49725 4.06466 7.81134C3.89433 8.1253 3.85254 8.5571 3.85254 9.0281C3.85254 10.2057 4.06468 11.1478 4.53076 11.7759C4.91168 12.3254 5.50317 12.7572 6.30836 12.9926C6.81625 13.1497 7.57809 13.3067 8.59542 13.3853C8.21296 13.6992 8.00236 14.1702 7.9172 14.7199C7.40931 14.9553 6.94322 15.0338 6.52049 14.9553C5.75866 14.9161 5.20742 14.5628 4.8265 13.8954C4.65772 13.6207 4.40222 13.3853 4.14828 13.1889C3.93769 13.1105 3.72557 12.9926 3.51344 12.9141L3.21767 12.8749C2.87856 12.8749 2.70977 12.9534 2.70977 13.032C2.70977 13.1105 2.75159 13.2282 2.92037 13.3067L3.13252 13.4638C3.30284 13.5815 3.51343 13.7385 3.72556 13.974C3.89434 14.1702 4.02131 14.3666 4.14828 14.602L4.31861 14.9161C4.44558 15.3086 4.69952 15.6227 5.12225 15.8189C5.46136 16.0152 5.8423 16.1329 6.35018 16.1722C6.68929 16.2114 7.02839 16.2114 7.4093 16.1329L7.87538 16.0937L7.9172 18.4882C7.9172 18.6451 7.83204 18.8021 7.70507 18.8806C7.5781 18.9984 7.40931 19.0377 7.19718 18.9592C5.03865 18.3311 3.30283 17.1535 1.98975 15.4263C0.634867 13.6992 0 11.7759 0 9.57763C0 7.81134 0.422725 6.20196 1.35489 4.71029C2.24369 3.25796 3.47162 2.11957 5.08045 1.2561C6.64747 0.431667 8.42509 0 10.373 0ZM4.10648 13.5422C4.14829 13.503 4.23344 13.503 4.31861 13.5815C4.40223 13.66 4.40224 13.7385 4.36043 13.7777C4.27527 13.8563 4.23344 13.8171 4.14828 13.7385C4.06466 13.66 4.02132 13.6207 4.10648 13.5422ZM3.64041 13.2282C3.68377 13.1889 3.76737 13.1889 3.85254 13.2282C3.9377 13.2674 3.93769 13.3067 3.93769 13.3853C3.89433 13.4638 3.81073 13.4638 3.72556 13.3853C3.6404 13.3459 3.5986 13.3067 3.64041 13.2282ZM5.03865 14.602C5.03865 14.602 5.08044 14.602 5.1656 14.602C5.20741 14.602 5.24922 14.6413 5.29258 14.6805C5.33438 14.7199 5.37619 14.7591 5.37619 14.7983C5.37619 14.8768 5.37619 14.9161 5.37619 14.9161C5.29258 14.9946 5.16561 14.9946 5.08045 14.8768C4.99529 14.8376 4.9953 14.7983 4.9953 14.7199C4.9953 14.6805 4.9953 14.6414 5.03865 14.602ZM4.53076 14.0525C4.57257 14.0525 4.61438 14.0525 4.65773 14.0525C4.69954 14.0525 4.74135 14.0918 4.78471 14.131C4.86832 14.2487 4.86832 14.3273 4.78471 14.3666C4.74135 14.4058 4.69954 14.4058 4.65773 14.3666C4.61438 14.3666 4.57257 14.3273 4.53076 14.2881C4.4456 14.1702 4.4456 14.0918 4.53076 14.0525Z" fill="white"/>
</svg>
