<svg width="21" height="19" viewBox="0 0 21 19" fill="none" xmlns="http://www.w3.org/2000/svg">
<path d="M10.5 4.62282C11.4377 4.62282 12.3274 4.87718 13.1726 5.30139C14.016 5.72544 14.6726 6.31917 15.1406 7.08258C15.6086 7.84599 15.8914 8.65175 15.8914 9.5C15.8914 10.3906 15.6086 11.1965 15.1406 11.9598C14.6726 12.7232 14.016 13.3169 13.1726 13.7411C12.3274 14.1652 11.4377 14.3772 10.5 14.3772C9.516 14.3772 8.62457 14.1652 7.78115 13.7411C6.93772 13.3169 6.28113 12.7232 5.81313 11.9598C5.34341 11.1965 5.10859 10.3906 5.10859 9.5C5.10859 8.65175 5.34341 7.84599 5.81313 7.08258C6.28113 6.31917 6.93772 5.72544 7.78115 5.30139C8.62457 4.87718 9.516 4.62282 10.5 4.62282ZM10.5 12.6808C11.4377 12.6808 12.2812 12.384 12.984 11.7477C13.6406 11.154 14.016 10.3906 14.016 9.5C14.016 8.65175 13.6406 7.88834 12.984 7.25226C12.2812 6.65853 11.4377 6.31917 10.5 6.31917C9.516 6.31917 8.67256 6.65853 8.01599 7.25226C7.31313 7.88834 6.98401 8.65175 6.98401 9.5C6.98401 10.3906 7.31313 11.154 8.01599 11.7477C8.67256 12.384 9.516 12.6808 10.5 12.6808ZM17.3914 4.41079C17.3914 4.11377 17.2508 3.8594 17.016 3.60488C16.7348 3.39286 16.4537 3.26567 16.1246 3.26567C15.7492 3.26567 15.468 3.39286 15.2348 3.60488C14.9537 3.8594 14.8594 4.11377 14.8594 4.41079C14.8594 4.75 14.9537 5.00452 15.2348 5.21655C15.468 5.47091 15.7492 5.55576 16.1246 5.55576C16.4537 5.55576 16.7349 5.47091 16.968 5.21655C17.2029 5.00452 17.3434 4.75 17.3914 4.41079ZM20.9537 5.55576C20.9537 6.36167 21 7.67631 21 9.5C21 11.366 20.9537 12.6808 20.9057 13.4866C20.8594 14.2923 20.7188 14.9709 20.532 15.5648C20.2508 16.2857 19.7811 16.9219 19.2189 17.4308C18.6566 17.9397 17.9537 18.3214 17.2029 18.576C16.5463 18.788 15.7491 18.9152 14.8594 18.9577C13.968 19 12.516 19 10.5 19C8.43771 19 6.98399 19 6.09427 18.9577C5.20284 18.9152 4.45371 18.788 3.79714 18.5335C2.99999 18.3214 2.29713 17.9397 1.73485 17.4308C1.17256 16.9219 0.74916 16.2857 0.468018 15.5648C0.234875 14.9709 0.0942995 14.2923 0.0462995 13.4866C1.38102e-05 12.6808 0 11.366 0 9.5C0 7.67631 1.38102e-05 6.36167 0.0462995 5.55576C0.0942995 4.75 0.234875 4.02909 0.468018 3.4352C0.74916 2.75663 1.17256 2.12056 1.73485 1.61167C2.29713 1.10262 2.99999 0.67857 3.79714 0.424048C4.45371 0.254521 5.20284 0.127185 6.09427 0.0848421C6.98399 0.0423442 8.43771 0 10.5 0C12.516 0 13.968 0.0423442 14.8594 0.0848421C15.7491 0.127185 16.5463 0.254521 17.2029 0.424048C17.9537 0.67857 18.6566 1.10262 19.2189 1.61167C19.7811 2.12056 20.2508 2.75663 20.532 3.4352C20.7188 4.02909 20.8594 4.75 20.9537 5.55576ZM18.7029 15.0983C18.8914 14.6317 18.984 13.8683 19.0783 12.808C19.0783 12.2143 19.1246 11.3237 19.1246 10.1786V8.82143C19.1246 7.67631 19.0783 6.78572 19.0783 6.19198C18.984 5.13171 18.8914 4.36829 18.7029 3.90175C18.3274 3.05365 17.6246 2.41742 16.6869 2.07806C16.1726 1.90853 15.3274 1.82369 14.1566 1.73885C13.4537 1.73885 12.468 1.69651 11.2508 1.69651H9.74916C8.48402 1.69651 7.50001 1.73885 6.84344 1.73885C5.67258 1.82369 4.82741 1.90853 4.31313 2.07806C3.32741 2.41742 2.67257 3.05365 2.29714 3.90175C2.10857 4.36829 1.968 5.13171 1.92172 6.19198C1.87543 6.82806 1.87542 7.71881 1.87542 8.82143V10.1786C1.87542 11.3237 1.87543 12.2143 1.92172 12.808C1.968 13.8683 2.10857 14.6317 2.29714 15.0983C2.67257 15.9888 3.37541 16.5826 4.31313 16.9219C4.82741 17.0915 5.67258 17.2188 6.84344 17.2612C7.50001 17.3035 8.48402 17.3035 9.74916 17.3035H11.2508C12.516 17.3035 13.5 17.3035 14.1566 17.2612C15.3274 17.2188 16.1726 17.0915 16.6869 16.9219C17.6246 16.5826 18.3274 15.9464 18.7029 15.0983Z" fill="white"/>
</svg>
