<svg width="21" height="17" viewBox="0 0 21 17" fill="none" xmlns="http://www.w3.org/2000/svg">
<path d="M21 0.948669C21 0.683052 20.8594 0.455323 20.6249 0.265617C20.3906 0.113797 20.1094 0 19.8281 0H1.17189C0.796802 0 0.515655 0.113797 0.328112 0.265617C0.0937691 0.455323 0 0.683052 0 0.948669V16.0513C0 16.3169 0.0937691 16.5447 0.328112 16.7344C0.515655 16.9241 0.796802 17 1.17189 17H11.2032V10.3973H8.48435V7.85497H11.2032V5.95763C11.2032 4.89503 11.5781 4.06029 12.3281 3.45315C13.0781 2.88389 14.0625 2.58039 15.2813 2.58039C16.2187 2.58039 17.0625 2.61828 17.7187 2.6563V4.97094H16.0313C15.4219 4.97094 15 5.08487 14.7657 5.31247C14.5781 5.50217 14.4843 5.80581 14.4843 6.22325V7.85497H17.6249L17.2032 10.3973H14.4843V17H19.8281C20.1562 17 20.4375 16.9241 20.6719 16.7344C20.8594 16.5447 21 16.3169 21 16.0513V0.948669Z" fill="white"/>
</svg>
